REM DIRINDEX 1\4,1\2\5,1\2\6,1\3\7,1\3\8
REM DIRNAME folder01,folder02,folder03,folder04,folder05,folder06,folder07,folder08
TITLE ""
FILE "103_Day52_Check2_Phrases.mp3" MP3
  TRACK 01 AUDIO
    TITLE "0:"
    INDEX 01 00:00:00
  TRACK 02 AUDIO
    TITLE "4:cjc124_3369"
    INDEX 01 00:00:33
  TRACK 03 AUDIO
    TITLE "0:"
    INDEX 01 00:01:58
  TRACK 04 AUDIO
    TITLE "5:cjc124_3370"
    INDEX 01 00:02:16
  TRACK 05 AUDIO
    TITLE "0:"
    INDEX 01 00:04:01
  TRACK 06 AUDIO
    TITLE "6:cjc124_3371"
    INDEX 01 00:04:19
  TRACK 07 AUDIO
    TITLE "0:"
    INDEX 01 00:05:67
  TRACK 08 AUDIO
    TITLE "5:cjc124_3372"
    INDEX 01 00:06:30
  TRACK 09 AUDIO
    TITLE "0:"
    INDEX 01 00:08:19
  TRACK 10 AUDIO
    TITLE "6:cjc124_3373"
    INDEX 01 00:08:36
  TRACK 11 AUDIO
    TITLE "0:"
    INDEX 01 00:09:73
  TRACK 12 AUDIO
    TITLE "5:cjc124_3374"
    INDEX 01 00:10:37
  TRACK 13 AUDIO
    TITLE "0:"
    INDEX 01 00:12:67
  TRACK 14 AUDIO
    TITLE "6:cjc124_3375"
    INDEX 01 00:13:08
  TRACK 15 AUDIO
    TITLE "0:"
    INDEX 01 00:15:42
  TRACK 16 AUDIO
    TITLE "5:cjc124_3376"
    INDEX 01 00:16:06
  TRACK 17 AUDIO
    TITLE "0:"
    INDEX 01 00:18:07
  TRACK 18 AUDIO
    TITLE "6:cjc124_3377"
    INDEX 01 00:18:23
  TRACK 19 AUDIO
    TITLE "0:"
    INDEX 01 00:19:60
  TRACK 20 AUDIO
    TITLE "5:cjc124_3378"
    INDEX 01 00:20:30
  TRACK 21 AUDIO
    TITLE "0:"
    INDEX 01 00:21:60
  TRACK 22 AUDIO
    TITLE "6:cjc124_3379"
    INDEX 01 00:22:01
  TRACK 23 AUDIO
    TITLE "0:"
    INDEX 01 00:23:22
  TRACK 24 AUDIO
    TITLE "5:cjc124_3380"
    INDEX 01 00:23:63
  TRACK 25 AUDIO
    TITLE "0:"
    INDEX 01 00:25:33
  TRACK 26 AUDIO
    TITLE "6:cjc124_3381"
    INDEX 01 00:25:48
  TRACK 27 AUDIO
    TITLE "0:"
    INDEX 01 00:27:02
  TRACK 28 AUDIO
    TITLE "5:cjc124_3382"
    INDEX 01 00:27:39
  TRACK 29 AUDIO
    TITLE "0:"
    INDEX 01 00:29:48
  TRACK 30 AUDIO
    TITLE "6:cjc124_3383"
    INDEX 01 00:29:64
  TRACK 31 AUDIO
    TITLE "0:"
    INDEX 01 00:31:37
  TRACK 32 AUDIO
    TITLE "5:cjc124_3384"
    INDEX 01 00:31:73
  TRACK 33 AUDIO
    TITLE "0:"
    INDEX 01 00:33:26
  TRACK 34 AUDIO
    TITLE "6:cjc124_3385"
    INDEX 01 00:33:56
  TRACK 35 AUDIO
    TITLE "0:"
    INDEX 01 00:35:12
  TRACK 36 AUDIO
    TITLE "5:cjc124_3386"
    INDEX 01 00:35:53
  TRACK 37 AUDIO
    TITLE "0:"
    INDEX 01 00:37:36
  TRACK 38 AUDIO
    TITLE "6:cjc124_3387"
    INDEX 01 00:37:54
  TRACK 39 AUDIO
    TITLE "0:"
    INDEX 01 00:39:09
  TRACK 40 AUDIO
    TITLE "5:cjc124_3388"
    INDEX 01 00:39:52
  TRACK 41 AUDIO
    TITLE "0:"
    INDEX 01 00:41:16
  TRACK 42 AUDIO
    TITLE "6:cjc124_3389"
    INDEX 01 00:41:53
  TRACK 43 AUDIO
    TITLE "0:"
    INDEX 01 00:43:19
  TRACK 44 AUDIO
    TITLE "5:cjc124_3390"
    INDEX 01 00:43:60
  TRACK 45 AUDIO
    TITLE "0:"
    INDEX 01 00:45:30
  TRACK 46 AUDIO
    TITLE "6:cjc124_3391"
    INDEX 01 00:45:51
  TRACK 47 AUDIO
    TITLE "0:"
    INDEX 01 00:47:03
  TRACK 48 AUDIO
    TITLE "5:cjc124_3392"
    INDEX 01 00:47:44
  TRACK 49 AUDIO
    TITLE "0:"
    INDEX 01 00:49:27
  TRACK 50 AUDIO
    TITLE "6:cjc124_3393"
    INDEX 01 00:49:43
  TRACK 51 AUDIO
    TITLE "0:"
    INDEX 01 00:51:22
  TRACK 52 AUDIO
    TITLE "5:cjc124_3394"
    INDEX 01 00:51:60
  TRACK 53 AUDIO
    TITLE "0:"
    INDEX 01 00:53:51
  TRACK 54 AUDIO
    TITLE "6:cjc124_3395"
    INDEX 01 00:53:66
  TRACK 55 AUDIO
    TITLE "0:"
    INDEX 01 00:55:46
  TRACK 56 AUDIO
    TITLE "5:cjc124_3396"
    INDEX 01 00:56:10
  TRACK 57 AUDIO
    TITLE "0:"
    INDEX 01 00:57:39
  TRACK 58 AUDIO
    TITLE "6:cjc124_3397"
    INDEX 01 00:58:01
  TRACK 59 AUDIO
    TITLE "0:"
    INDEX 01 00:59:22
  TRACK 60 AUDIO
    TITLE "5:cjc124_3398"
    INDEX 01 00:59:59
  TRACK 61 AUDIO
    TITLE "0:"
    INDEX 01 01:01:34
  TRACK 62 AUDIO
    TITLE "6:cjc124_3399"
    INDEX 01 01:01:60
  TRACK 63 AUDIO
    TITLE "0:"
    INDEX 01 01:03:27
  TRACK 64 AUDIO
    TITLE "5:cjc124_3400"
    INDEX 01 01:03:69
  TRACK 65 AUDIO
    TITLE "0:"
    INDEX 01 01:05:71
  TRACK 66 AUDIO
    TITLE "6:cjc124_3401"
    INDEX 01 01:06:10
  TRACK 67 AUDIO
    TITLE "0:"
    INDEX 01 01:07:55
